HIERARCHY
ROOT hip
{
	OFFSET 0.000000 0.000000 0.000000 
	CHANNELS 6 Xposition Yposition Zposition Xrotation Zrotation Yrotation
	JOINT abdomen
	{
		OFFSET 0.000000 3.402643 0.000000 
		CHANNELS 3 Xrotation Zrotation Yrotation
		JOINT chest
		{
			OFFSET 0.000000 8.438565 -0.680529 
			CHANNELS 3 Xrotation Zrotation Yrotation
			JOINT neck
			{
				OFFSET 0.000000 10.207942 -0.272212 
				CHANNELS 3 Xrotation Zrotation Yrotation
				JOINT head
				{
					OFFSET 0.000000 3.130431 0.000000 
					CHANNELS 3 Xrotation Zrotation Yrotation
					End Site
					{
						OFFSET 0.000000 3.130435 0.000000 
					}
				}
			}
			JOINT lCollar
			{
				OFFSET 3.470700 6.669187 -0.816635 
				CHANNELS 3 Yrotation Zrotation Xrotation
				JOINT lShldr
				{
					OFFSET 3.198488 0.000000 0.000000 
					CHANNELS 3 Zrotation Yrotation Xrotation
					JOINT lForeArm
					{
						OFFSET 10.139888 0.000000 0.000000 
						CHANNELS 3 Yrotation Zrotation Xrotation
						JOINT lHand
						{
							OFFSET 8.370511 0.000000 0.000000 
							CHANNELS 3 Zrotation Yrotation Xrotation
							End Site
							{
								OFFSET 4.083176 0.000000 0.000000 
							}
						}
					}
				}
			}
			JOINT rCollar
			{
				OFFSET -3.470700 6.669187 -0.816635 
				CHANNELS 3 Yrotation Zrotation Xrotation
				JOINT rShldr
				{
					OFFSET -3.198488 0.000000 0.000000 
					CHANNELS 3 Zrotation Yrotation Xrotation
					JOINT rForeArm
					{
						OFFSET -10.139888 0.000000 0.000000 
						CHANNELS 3 Yrotation Zrotation Xrotation
						JOINT rHand
						{
							OFFSET -8.370511 0.000000 0.000000 
							CHANNELS 3 Zrotation Yrotation Xrotation
							End Site
							{
								OFFSET -4.083176 0.000000 0.000000 
							}
						}
					}
				}
			}
		}
	}
	JOINT lThigh
	{
		OFFSET 5.308129 -1.633274 1.361059 
		CHANNELS 3 Xrotation Zrotation Yrotation
		JOINT lShin
		{
			OFFSET -2.041588 -20.007561 0.000000 
			CHANNELS 3 Xrotation Zrotation Yrotation
			JOINT lFoot
			{
				OFFSET 0.000000 -19.190928 -1.224953 
				CHANNELS 3 Xrotation Yrotation Zrotation
				End Site
				{
					OFFSET 0.000000 -2.449906 4.627600 
				}
			}
		}
	}
	JOINT rThigh
	{
		OFFSET -5.308129 -1.633274 1.361059 
		CHANNELS 3 Xrotation Zrotation Yrotation
		JOINT rShin
		{
			OFFSET 2.041588 -20.007561 0.000000 
			CHANNELS 3 Xrotation Zrotation Yrotation
			JOINT rFoot
			{
				OFFSET 0.000000 -19.190928 -1.224953 
				CHANNELS 3 Xrotation Yrotation Zrotation
				End Site
				{
					OFFSET 0.000000 -2.449906 4.627600 
				}
			}
		}
	}
}
MOTION
Frames: 17
Frame Time: 0.033333
-7.839823 49.081249 13.885711 1.743011 -0.165939 1.738274 0.000000 0.000000 0.000000 -5.567470 0.741958 1.425915 -5.579192 -4.573483 -4.849704 6.689562 -1.401073 -8.332824 -3.728200 0.175148 -4.482694 -74.566940 -21.740396 20.494921 -107.074081 6.030274 -7.147491 0.743652 5.515493 -3.505450 5.968754 10.472745 -4.898300 21.024563 44.353645 -15.287697 98.748825 -5.185994 -12.129189 -16.407133 -11.853317 -2.431462 3.141246 4.567014 3.536203 3.240467 -3.855710 20.504429 -7.046504 0.234421 -3.658445 1.308349 -11.503008 -8.710259 -1.844458 3.492595 -6.243449 1.387386 0.065339 8.235553 
-7.830334 49.076084 13.913233 1.669802 -0.351423 1.611358 0.000000 0.000000 0.000000 -5.633279 0.800505 1.504169 -5.272400 -4.675684 -5.507375 7.525326 0.202362 -9.335982 -3.565937 0.000152 -4.551754 -74.399933 -21.295116 20.803080 -106.942657 6.160978 -6.378215 -0.077480 5.992968 -3.532706 6.201545 9.966503 -4.957758 19.714037 46.045975 -14.904774 97.563080 -5.728279 -8.528991 -8.483092 -9.982378 -3.096934 3.004653 4.732747 3.693415 3.794678 -3.828543 20.385866 -7.363845 0.227807 -3.761068 1.395507 -11.334160 -8.660142 -1.852771 3.548868 -6.118968 1.353747 0.051264 8.220956 
-7.820488 49.070580 13.925787 1.687625 -0.419762 1.582060 0.000000 0.000000 0.000000 -5.751287 0.722374 1.601804 -4.894808 -4.620921 -6.251047 8.132129 1.633634 -10.258046 -3.313236 -0.258713 -4.660335 -74.127129 -21.112049 21.615808 -106.747498 6.281208 -6.873910 0.382366 6.285675 -3.519964 6.454043 9.415836 -5.044332 17.436197 47.742611 -16.489668 96.731697 -5.859033 -6.660375 -4.602375 -6.774773 -3.418156 2.839181 4.830246 3.756147 4.156076 -3.869291 20.319284 -7.572181 0.249318 -3.785624 1.386107 -11.288589 -8.616603 -1.861725 3.567329 -6.090939 1.345108 0.041226 8.227945 
-7.811879 49.068779 13.927727 1.785026 -0.390445 1.738308 0.000000 0.000000 0.000000 -5.825391 0.507607 1.630968 -4.544471 -4.535583 -7.083114 8.465332 2.836280 -11.136792 -3.457197 -0.095308 -4.737541 -74.397423 -20.639044 21.713663 -106.896973 6.305099 -6.643932 0.556091 5.846425 -3.518788 6.346183 8.265551 -5.058156 14.624707 49.738426 -19.990822 96.078545 -5.461107 -7.785170 -3.783206 -4.820428 -3.486664 2.750934 4.809911 3.727242 4.135688 -3.906871 20.183140 -7.576756 0.273002 -3.764157 1.326061 -11.339397 -8.648560 -1.851874 3.557416 -6.207110 1.336160 0.050966 8.242139 
-7.791035 49.059814 13.932478 1.776385 -0.351399 1.748074 0.000000 0.000000 0.000000 -5.840164 0.322127 1.679716 -3.982514 -4.613235 -7.985657 8.980671 4.685570 -12.287495 -3.271468 -0.217938 -4.748226 -74.405678 -20.394873 21.792870 -106.847618 6.323123 -6.455555 0.212123 5.414071 -3.528421 6.367708 7.345039 -5.017638 10.138881 51.619137 -25.600529 95.055145 -4.762387 -10.108311 -4.344747 -4.602324 -3.479619 2.721420 4.770989 3.695060 4.233387 -3.897460 20.000498 -7.615355 0.262874 -3.758464 1.365856 -11.383632 -8.682998 -1.860262 3.565314 -6.168968 1.310501 0.040393 8.301334 
-7.771816 49.072639 13.940586 1.678190 -0.351382 1.835963 0.000000 0.000000 0.000000 -5.784830 0.204985 1.728539 -3.335736 -4.516891 -8.787719 9.366506 6.588148 -13.281687 -2.910915 -0.719714 -4.721101 -74.093788 -20.401211 22.224085 -106.810539 6.426546 -6.444310 0.314344 5.811789 -3.523434 6.496223 5.803956 -4.911356 5.067805 52.969856 -32.872318 93.784523 -3.811060 -11.292558 -5.614673 -4.755283 -3.457077 2.997059 4.705688 3.612156 3.836213 -3.837760 20.090155 -7.451443 0.251907 -3.686779 1.510875 -11.416965 -8.769788 -1.854327 3.609654 -6.277166 1.299128 0.054074 8.275435 
-7.754942 49.079861 13.947980 1.628917 -0.341596 1.962914 0.000000 0.000000 0.000000 -5.808333 0.068324 1.855479 -2.584526 -4.122947 -9.468547 9.801578 8.642077 -14.098408 -2.438385 -1.394485 -4.753217 -73.714233 -20.540485 22.838627 -106.588272 6.521200 -6.713702 0.197611 6.107920 -3.532261 6.313579 3.749812 -4.818300 0.226347 53.827587 -41.303745 92.474922 -2.396411 -14.130769 -5.575525 -3.105849 -3.509929 3.122442 4.635229 3.543016 3.609732 -3.772198 20.088394 -7.305593 0.254961 -3.662492 1.579712 -11.427761 -8.822313 -1.862521 3.568438 -6.354624 1.307107 0.038351 8.311061 
-7.750259 49.071060 13.956330 1.583130 -0.507478 2.080083 0.000000 0.000000 0.000000 -5.809222 0.039040 1.943366 -1.866215 -3.385723 -9.968809 9.975031 10.908427 -14.724013 -2.158327 -1.565103 -4.744904 -73.832291 -20.448254 23.066378 -106.580528 6.548259 -6.702083 -0.089431 6.168397 -3.543571 6.412252 1.924000 -4.759643 -5.871747 53.904274 -49.928848 90.027138 -1.078064 -16.132240 -7.578520 -0.390504 -3.672020 2.818249 4.789540 3.644789 4.401262 -3.736882 19.943903 -7.719750 0.266945 -3.822016 1.659674 -11.289101 -8.734143 -1.879995 3.587184 -6.493276 1.287221 0.064462 8.352343 
-7.721013 49.067226 13.970901 1.579331 -0.595288 2.138759 0.000000 0.000000 0.000000 -5.762782 -0.029278 2.080078 -1.530574 -2.287289 -10.233133 10.397536 12.517575 -14.912582 -2.154410 -1.409683 -4.715110 -73.977890 -20.270821 23.202099 -106.594414 6.592723 -6.532239 0.003041 6.105595 -3.533537 6.551430 -0.162562 -4.647214 -10.936913 53.013504 -58.822689 88.405296 0.712814 -20.134672 -8.741684 0.198610 -3.725535 2.653101 4.858793 3.685040 4.723412 -3.727686 19.920782 -7.887749 0.284744 -3.847785 1.716257 -11.251994 -8.772656 -1.864282 3.629539 -6.503069 1.220978 0.069530 8.345609 
-7.692073 49.072521 13.980070 1.617560 -0.585483 2.255941 0.000000 0.000000 0.000000 -5.755368 -0.087824 2.226560 -1.363731 -1.212672 -9.758201 10.258578 14.616022 -14.541701 -2.181809 -1.622997 -4.715579 -73.775917 -20.159090 23.288181 -106.632332 6.611344 -6.644848 0.359745 6.157234 -3.534535 6.586023 -1.684691 -4.569947 -15.577782 51.778145 -66.539978 87.291664 2.361765 -25.939692 -9.913107 0.448438 -3.795371 2.712069 4.800598 3.599392 4.458410 -3.694860 19.852945 -7.765272 0.276575 -3.753756 1.736855 -11.293767 -8.855714 -1.889900 3.663740 -6.711234 1.243126 0.075419 8.367952 
-7.668983 49.058399 13.993010 1.736516 -0.526914 2.314535 0.000000 0.000000 0.000000 -5.801208 -0.243928 2.392598 -1.423228 -0.077148 -9.072284 10.181816 16.407990 -13.895874 -1.927444 -1.966131 -4.756298 -73.525406 -20.236509 23.364300 -106.638962 6.607871 -6.953418 0.123741 6.504520 -3.536950 6.237065 -4.128706 -4.522911 -17.444099 50.584728 -72.032326 86.944267 3.949631 -30.935320 -9.315811 2.297048 -3.884969 2.497476 4.732536 3.500956 4.656669 -3.720871 19.828398 -7.860482 0.260017 -3.773096 1.659468 -11.433289 -8.933914 -1.893810 3.708137 -6.663899 1.242187 0.065996 8.364546 
-7.667328 49.063461 14.008551 1.832016 -0.565920 2.373124 0.000000 0.000000 0.000000 -5.923810 -0.341440 2.617199 -1.435432 1.188259 -8.409823 9.655972 16.988873 -13.192191 -2.042197 -2.216746 -4.893659 -73.299629 -19.945950 23.262342 -106.562828 6.583188 -7.150560 0.320748 6.467909 -3.534827 5.990027 -5.294571 -4.619221 -19.280334 49.328049 -75.466019 86.546188 4.790880 -32.726868 -4.278507 4.355763 -3.673513 2.457159 4.720362 3.451898 4.614183 -3.625910 19.824146 -7.871051 0.294343 -3.821750 1.599692 -11.400628 -8.909600 -1.890442 3.713248 -6.576142 1.178307 0.037042 8.386940 
-7.665185 49.072536 14.031771 1.731709 -0.614680 2.431710 0.000000 0.000000 0.000000 -5.846093 -0.341422 2.685557 -1.407614 2.284548 -7.584134 8.727006 16.454588 -12.082960 -1.928547 -2.297147 -4.825716 -73.296448 -19.814341 22.881086 -106.476517 6.544534 -6.785866 -0.321637 6.750893 -3.557051 5.878275 -6.185906 -4.529775 -20.726568 48.068451 -77.225708 86.360840 5.241812 -32.350849 3.021278 5.631712 -3.139047 2.703520 4.754862 3.457540 4.431345 -3.572557 19.868265 -7.814552 0.248080 -3.842366 1.757322 -11.338098 -8.899533 -1.880333 3.704902 -6.653294 1.130244 0.082933 8.394678 
-7.681096 49.059471 14.050822 1.642875 -0.614640 2.519596 0.000000 0.000000 0.000000 -5.740307 -0.380450 2.656256 -1.666542 2.405665 -6.636467 9.626162 18.696131 -11.357793 -1.919732 -2.359629 -4.728216 -73.263824 -19.729866 22.305239 -106.593254 6.483179 -6.449594 -0.816365 7.327000 -3.580637 5.411049 -7.020616 -4.442057 -21.784563 47.331463 -77.604431 86.752922 5.293196 -31.997995 10.218850 5.349503 -2.605839 2.564170 4.798988 3.495134 4.846988 -3.625167 19.787834 -7.999956 0.270873 -3.908994 1.863858 -11.343097 -8.962862 -1.862418 3.724648 -6.691598 1.099833 0.075349 8.382369 
-7.690691 49.052216 14.078766 1.720135 -0.595049 2.685605 0.000000 0.000000 0.000000 -5.772365 -0.458530 2.548903 -1.770001 2.990252 -6.199755 8.718294 17.862968 -10.624413 -2.171669 -1.966107 -4.736098 -73.425507 -19.534044 21.966787 -106.670509 6.349666 -6.906627 0.004500 7.133224 -3.555105 5.090447 -7.857856 -4.452671 -22.076408 46.441971 -76.344238 87.539345 5.051037 -30.820099 15.513644 4.847703 -2.254004 2.427916 4.827530 3.511239 4.938688 -3.659931 19.536533 -8.040659 0.269063 -3.888783 1.854252 -11.353258 -8.973267 -1.882729 3.706310 -6.887692 1.082582 0.066732 8.421311 
-7.689354 49.054375 14.103455 1.895376 -0.585246 2.783257 0.000000 0.000000 0.000000 -5.908973 -0.487859 2.382892 -1.884762 3.546116 -5.821128 7.877314 16.152649 -9.752831 -2.224247 -1.721968 -4.862076 -73.570923 -19.120909 21.597641 -106.706505 6.316990 -6.469453 -0.099664 6.490646 -3.542963 4.848686 -8.458708 -4.588765 -22.118906 45.763988 -73.839767 88.205276 4.552576 -30.044500 19.333437 3.878603 -2.164009 2.407820 4.826286 3.492032 4.683706 -3.686921 19.251444 -7.967678 0.257363 -3.786177 1.747208 -11.365223 -8.950932 -1.882813 3.677144 -7.072272 1.040376 0.055232 8.428668 
-7.692045 49.058830 14.137122 1.816311 -0.624309 2.695471 0.000000 0.000000 0.000000 -5.917052 -0.458607 2.324222 -1.877091 3.810861 -5.451405 7.889976 15.264187 -9.092713 -2.220854 -1.458348 -4.841990 -73.590813 -19.031841 21.300409 -106.154411 6.279639 -5.463590 -0.203971 5.368728 -3.528189 4.784456 -8.559513 -4.571371 -22.236467 45.342789 -70.758354 88.395210 3.798608 -29.366026 22.144474 2.583059 -2.247659 2.642304 4.866584 3.607280 4.547788 -3.737372 19.259899 -7.966147 0.257201 -3.807648 1.834267 -11.272963 -8.876902 -1.873788 3.629239 -6.982183 0.993003 0.060039 8.452587 
